name rise49.25peak52.1432fall72.8391.mot
datacolumns 19
datarows 11
range 22.59491700000000 22.61158100000000
endheader
time	ground_force1_vx	ground_force1_vy	ground_force1_vz	ground_force1_px	ground_force1_py	ground_force1_pz	ground_force2_vx	ground_force2_vy	ground_force2_vz	ground_force2_px	ground_force2_py	ground_force2_pz	ground_torque1_x	ground_torque1_y	ground_torque1_z	ground_torque2_x	ground_torque2_y	ground_torque2_z	
22.59491700000000	-9.83178000000000	46.09253300000000	-10.70533800000000	0.35238600000000	0.00000000000000	0.08147100000000	-53.73668100000000	789.96454000000006	-43.96920100000000	0.13523600000000	0.00000000000000	-0.06828800000000	0.00000000000000	-6.66201600000000	0.00000000000000	0.00000000000000	-17.16540000000000	0.00000000000000	
22.59657600000000	-10.61982300000000	52.60047400000000	-11.79917600000000	0.35499300000000	0.00000000000000	0.08213900000000	-54.63346200000000	787.93317200000001	-43.60184200000000	0.13425800000000	0.00000000000000	-0.06818800000000	0.00000000000000	-7.41164400000000	0.00000000000000	0.00000000000000	-17.11088300000000	0.00000000000000	
22.59824700000000	-11.23726400000000	59.02343300000000	-12.76437500000000	0.35740600000000	0.00000000000000	0.08277000000000	-55.54197100000000	785.79048599999999	-43.21776500000000	0.13328000000000	0.00000000000000	-0.06808700000000	0.00000000000000	-8.09442000000000	0.00000000000000	0.00000000000000	-17.05751900000000	0.00000000000000	
22.59991000000000	-11.66984400000000	65.29666800000000	-13.58444800000000	0.35965000000000	0.00000000000000	0.08336900000000	-56.46142100000000	783.53324199999997	-42.81684500000000	0.13230300000000	0.00000000000000	-0.06798300000000	0.00000000000000	-8.69902700000000	0.00000000000000	0.00000000000000	-17.00526100000000	0.00000000000000	
22.60157600000000	-11.91253500000000	71.38133500000001	-14.25140900000000	0.36174800000000	0.00000000000000	0.08393800000000	-57.39092600000000	781.15813100000003	-42.39897300000000	0.13132700000000	0.00000000000000	-0.06787700000000	0.00000000000000	-9.21922400000000	0.00000000000000	0.00000000000000	-16.95404800000000	0.00000000000000	
22.60324200000000	-11.96871500000000	77.26380100000000	-14.76518000000000	0.36371600000000	0.00000000000000	0.08448100000000	-58.32950100000000	778.66177800000003	-41.96406100000000	0.13035200000000	0.00000000000000	-0.06776900000000	0.00000000000000	-9.65357200000000	0.00000000000000	0.00000000000000	-16.90380500000000	0.00000000000000	
22.60491200000000	-11.84879000000000	82.95300000000000	-15.13244400000000	0.36556900000000	0.00000000000000	0.08500100000000	-59.27606100000000	776.04075399999999	-41.51203900000000	0.12937800000000	0.00000000000000	-0.06765800000000	0.00000000000000	-10.00482100000000	0.00000000000000	0.00000000000000	-16.85444100000000	0.00000000000000	
22.60657400000000	-11.56847900000000	88.47638700000000	-15.36514500000000	0.36732100000000	0.00000000000000	0.08549900000000	-60.22942200000000	773.29158600000005	-41.04285900000000	0.12840600000000	0.00000000000000	-0.06754600000000	0.00000000000000	-10.27904900000000	0.00000000000000	0.00000000000000	-16.80585000000000	0.00000000000000	
22.60824500000000	-11.14695600000000	93.87506800000000	-15.47881600000000	0.36898300000000	0.00000000000000	0.08597700000000	-61.18830100000000	770.41076599999997	-40.55649800000000	0.12743600000000	0.00000000000000	-0.06743100000000	0.00000000000000	-10.48468400000000	0.00000000000000	0.00000000000000	-16.75791300000000	0.00000000000000	
22.60991000000000	-10.60503300000000	99.19865500000000	-15.49090200000000	0.37056500000000	0.00000000000000	0.08643700000000	-62.15131500000000	767.39476100000002	-40.05295800000000	0.12646900000000	0.00000000000000	-0.06731300000000	0.00000000000000	-10.63149700000000	0.00000000000000	0.00000000000000	-16.71049400000000	0.00000000000000	
22.61158100000000	-9.96352000000000	104.50030700000001	-15.41922100000000	0.37207300000000	0.00000000000000	0.08688000000000	-63.11698200000000	764.24003000000005	-39.53226700000000	0.12550300000000	0.00000000000000	-0.06719400000000	0.00000000000000	-10.72966300000000	0.00000000000000	0.00000000000000	-16.66344700000000	0.00000000000000	
